<?xml version="1.0" encoding="UTF-8"?>
<svg id="Layer_1" xmlns="http://www.w3.org/2000/svg" version="1.1" viewBox="0 0 1024 1024">
  <!-- Generator: Adobe Illustrator 29.7.1, SVG Export Plug-In . SVG Version: 2.1.1 Build 8)  -->
  <defs>
    <style>
      .st0 {
        fill: #fff;
      }
    </style>
  </defs>
  <path class="st0" d="M430.18,97.45c-24.33,3.61-23.22,40.74,1.85,43.62,35.46,4.08,35.91-49.23-1.85-43.62ZM349.18,141.45c-22.01,3.22-22.77,38.52-.17,41.65,33.72,4.66,36.48-46.96.17-41.65ZM512.15,141.42c-18.55,3.15-21.76,31.85-5.64,40.16,18.75,9.67,39.12-5.8,32.18-26.18-4.01-11.76-14.72-15.99-26.55-13.98ZM427.18,176.44c-29.56,4.32-32.14,51.53-.81,57.29,47.49,8.72,49.65-64.42.81-57.29ZM270.16,186.42c-20.28,3.45-17.19,37.34,4.72,36.79,27.78-.7,25.66-41.96-4.72-36.79ZM590.15,186.42c-18.25,3.36-19.54,33.71,2.03,36.51,28.95,3.75,30.21-42.44-2.03-36.51ZM344.17,223.44c-13.29,1.8-24.62,11.46-25.74,25.25-3.73,45.58,65.05,44.04,59.88-.9-1.99-17.28-17.6-26.58-34.14-24.35ZM499.77,231.54c-7.34,7.34-9,19.93-6.91,29.69,7.11,33.23,63.28,28.57,58.56-13.56-2.73-24.33-35.67-32.12-51.65-16.14ZM196.15,236.42c-16.15,2.76-14.93,29.34,1.71,30.8,25.97,2.28,24.93-35.36-1.71-30.8ZM665.14,236.41c-3.86.79-8.04,4.94-9.47,8.53-8.07,20.24,19.12,30.49,27.95,14.95,7.95-14-2.9-26.67-18.48-23.48ZM433.2,264.45c-34.78,3.21-40.34,50.85-7.57,61.01,26.54,8.23,46.21-14.16,40.29-40.29-2.88-12.7-20.51-21.85-32.72-20.72ZM262.21,270.48c-44.39,3.62-31.45,73.06,13.02,60.02,33.72-9.88,26.07-63.21-13.02-60.02ZM599.17,270.44c-31.86,4.35-34.67,54.91-.81,60.29,48.69,7.74,50.88-67.13.81-60.29ZM127.12,287.4c-12.3,2.82-13.58,26.51,3.54,25.54,18.85-1.06,17.27-30.31-3.54-25.54ZM735.12,287.4c-2,.46-4.52,2.66-5.72,4.28-9.45,12.79,6.86,27.22,19.36,18.36,11.22-7.95.74-25.96-13.65-22.64ZM183.21,325.48c-49.11,4.26-55.48,77.02-6.56,93.97,6.01,2.08,25.66,4.75,28.35,7.65,2.95,3.18,3.71,19.61,6.57,26.43,14.55,34.7,55.11,31.53,80.87,11.16,19.13-15.14,36.4-30,63.35-18.37,44.75,19.31,18.15,67.36,13.78,101.5-2,15.6-1.53,32.42,3.14,47.57,2,6.49,8.79,16.85,9.65,22.35,6.58,41.94-22.54,74.82-10.45,114.45,19.44,63.73,117.66,59,129.26-8.76,5.96-34.84-20.7-69.45-13.52-104.52.88-4.32,6.6-12.94,8.48-18.52,16.72-49.38-11.57-75.49-7.69-117.69,2.76-30.03,31.79-45.8,59.74-37.77,17.76,5.1,24.13,15.75,37.93,25.07,28,18.92,65.4,9.83,74.02-24.61,1.31-5.23,1.07-15.44,5.22-18.78s26.31-5.59,34.59-9.41c36.37-16.78,38.32-74.32-.14-88.88-39.24-14.86-51.05,24.3-83.99,27.75-33.71,3.53-41.53-14.45-67.86-23.9-48.38-17.35-68.61,25.08-113.02,25.08-38.44,0-57.65-32.53-96.87-28.93-33.33,3.06-45.09,31.92-85.01,27.75-28.25-2.95-39.4-33.22-69.83-30.58ZM81.12,363.4c-11.61,2.68-8.82,26.39,7.35,21.34,12.09-3.78,9.17-25.15-7.35-21.34ZM783.12,363.4c-11.13,2.56-10.09,21.48,2.78,21.87,15.68.47,14.17-25.77-2.78-21.87ZM93.17,445.4c-19.39,2.85-16.25,32.93,4.63,30.72,19.6-2.07,16.29-33.79-4.63-30.72ZM774.17,445.43c-20.31,1.1-19.84,32.68,2.74,30.77,18.87-1.6,16.69-31.82-2.74-30.77ZM162.18,481.43c-34.87,4.08-21.93,58.06,11.94,45.96,27.27-9.74,17.41-49.39-11.94-45.96ZM700.15,481.43c-30.17,4.72-23.98,51.83,9.52,46.51,29.89-4.75,24.68-51.87-9.52-46.51ZM302.17,496.44c-9.73,1.33-18.92,7.69-24.18,15.82-29.1,44.98,36.41,84.17,62.84,42.84,18.08-28.29-6.92-63.01-38.66-58.66ZM558.17,496.44c-48.79,6.63-43.96,80.88,7.73,75.73,49.84-4.96,40.68-82.31-7.73-75.73ZM225.21,536.4c-8,.79-18.02,7.96-20.11,15.97-5.48,21.01,16.55,34.01,34.01,23.01,18.44-11.62,8.23-41.17-13.9-38.98ZM640.18,536.45c-27.47,3.53-22.52,44.67,6.59,42.67,28.42-1.95,24.61-46.68-6.59-42.67ZM92.16,538.41c-17.96,2.87-15.12,30.79,4.65,28.7,18.82-1.99,15.76-31.97-4.65-28.7ZM773.15,538.42c-15.72,2.86-14.58,28.78,2.77,28.84,21.7.08,18.66-32.74-2.77-28.84ZM709.23,589.42c-20.57,1.53-19.91,34.37,2.59,33.67,22.67-.71,21.15-35.44-2.59-33.67ZM156.16,590.42c-14.72,2.5-17.76,25.34-2.45,30.96,15.73,5.78,28.38-7.14,21.73-22.73-3.63-8.49-10.64-9.71-19.28-8.24ZM314.16,607.43c-10.09,1.62-21.32,12.09-22.66,22.34-4.59,35.19,43.56,44.99,54.38,13.39,6.56-19.14-11.95-38.9-31.73-35.73ZM571.06,654.83c24.55-23.29-8.78-62.39-35.14-42.64-31,23.22,6.99,69.36,35.14,42.64ZM232.15,629.42c-18.37,3.12-20.41,30.87-1.96,36.48,30.93,9.41,35.12-42.12,1.96-36.48ZM629.16,629.42c-9.91,1.69-15.03,13.91-13.5,23.03,3.41,20.27,35.29,19.33,37.64-1.87,1.73-15.64-9.28-23.68-24.14-21.15ZM91.07,633.53c-11.92.34-14.89,17.32-4.36,22.85,17.11,8.98,24.31-23.42,4.36-22.85ZM787.08,636.52c-12.22-11.84-28.96,9.57-14.61,19.11,12.06,8.02,25.21-8.84,14.61-19.11ZM166.14,683.42c-12.61,2.61-14.22,23.75-.76,27.3,24.61,6.48,25.57-32.43.76-27.3ZM696.14,683.42c-5.92,1.23-9.8,7.44-9.81,13.27,0,12.96,16.89,20.26,25.08,10,9.81-12.29-.74-26.27-15.27-23.27ZM308.15,704.42c-20.17,3.74-17.7,37.3,4.62,36.41,26.32-1.04,24.12-41.74-4.62-36.41ZM558.07,704.55c-24.51.46-23.74,39.65,2.87,36.65,21.48-2.42,21.69-37.11-2.87-36.65ZM109.17,726.37c-11.49,2.19-10.46,21.56,3.3,20.37,15.43-1.34,9.26-22.76-3.3-20.37ZM759.18,726.37c-13.07,1.5-14.18,23.84,4.52,19.6,9.32-2.12,7.69-21-4.52-19.6ZM629.17,732.43c-20.03,1.13-16.98,31.76,3.52,27.52,12.31-2.55,13.17-28.46-3.52-27.52ZM238.13,733.4c-12.39,2.82-12.67,28.47,6.78,26.79,6.05-.52,8.87-4.17,10.06-9.94,2.42-11.74-4.71-19.61-16.84-16.85ZM681.92,779.69c-16.83.04-14.54,24.63,3.79,19.28,7.75-2.26,8.79-19.32-3.79-19.28ZM186.12,780.4c-10.32,2.35-9.13,21.48,7.73,18.72,10.41-1.71,8.96-22.52-7.73-18.72ZM330.16,789.43c-20.25,1.25-20.29,33.11,2.6,32.37,21.7-.7,20.24-33.78-2.6-32.37ZM537.15,790.43c-23.44,3.84-14.1,40.36,9.25,31.25,16.39-6.39,10.96-34.55-9.25-31.25ZM430.14,818.41c-17.16,3.54-13.76,33.65,5.72,32.8,24.03-1.05,21.91-38.5-5.72-32.8ZM265.18,831.38c-12.42,1.8-9.11,23.72,7.3,18.36,7.22-2.36,5.57-20.23-7.3-18.36ZM602.17,831.37c-11.23,1.95-12.66,22.52,4.53,18.59,9.86-2.25,8.61-20.87-4.53-18.59ZM357.16,871.39c-11.53,2.22-11.27,19.17-2,21.54,20.57,5.26,19.56-24.92,2-21.54ZM511.18,871.36c-15.34,2.06-12.03,25.6,5.53,21.61,11.28-2.56,8.22-23.46-5.53-21.61ZM442.16,903.44c-8.35-7.68-22.37,5.92-12.71,14.21,10.06,8.63,20.3-7.23,12.71-14.21Z"/>
</svg>